<svg width="54" height="54" viewBox="0 0 54 54" fill="none" xmlns="http://www.w3.org/2000/svg">
<rect x="2" y="2" width="50" height="50" rx="3" stroke="url(#paint0_linear)" stroke-width="4"/>
<path d="M43.0942 28.9937C43.0942 30.6685 42.7354 32.235 42.0176 33.6934C41.2998 35.1517 40.3029 36.2967 39.0269 37.1284C37.7622 37.9487 36.3494 38.3589 34.7886 38.3589C33.1366 38.3589 31.6326 37.8348 30.2769 36.7866C28.9211 35.7384 27.7874 34.2061 26.876 32.1895C25.9531 34.2288 24.8195 35.7669 23.4751 36.8037C22.1307 37.8405 20.6382 38.3589 18.9976 38.3589C17.4367 38.3589 16.0239 37.9544 14.7593 37.1455C13.4946 36.3252 12.4977 35.1859 11.7686 33.7275C11.0394 32.2692 10.6748 30.6799 10.6748 28.9595V28.5493C10.6748 26.8745 11.0337 25.3079 11.7515 23.8496C12.4692 22.3913 13.4604 21.2463 14.7251 20.4146C16.0011 19.5828 17.4139 19.167 18.9634 19.167C20.6154 19.167 22.1136 19.6911 23.458 20.7393C24.8138 21.776 25.9531 23.3141 26.876 25.3535C27.7874 23.3369 28.9211 21.8045 30.2769 20.7563C31.644 19.6968 33.1593 19.167 34.8228 19.167C37.1698 19.167 39.1351 20.0785 40.7188 21.9014C42.3024 23.7129 43.0942 26.0029 43.0942 28.7715V28.9937ZM13.8364 28.9937C13.8364 31.0103 14.3092 32.6452 15.2549 33.8984C16.2005 35.1517 17.4481 35.7783 18.9976 35.7783C20.2964 35.7783 21.4699 35.2428 22.5181 34.1719C23.5776 33.1009 24.4036 31.6369 24.9961 29.7798L25.1841 29.1133V28.3955C24.9106 27.2676 24.4492 26.1567 23.7998 25.063C23.1504 23.9692 22.4098 23.1489 21.5781 22.6021C20.7464 22.0438 19.8748 21.7646 18.9634 21.7646C17.4367 21.7646 16.2005 22.3913 15.2549 23.6445C14.3092 24.8978 13.8364 26.5783 13.8364 28.686V28.9937ZM39.9326 28.5493C39.9326 26.5669 39.4598 24.9434 38.5142 23.6787C37.5685 22.4027 36.3381 21.7646 34.8228 21.7646C33.5125 21.7646 32.3219 22.3058 31.251 23.3882C30.18 24.4591 29.3426 25.9517 28.7388 27.8657L28.585 28.3955V29.1133C28.8356 30.2184 29.2913 31.335 29.9521 32.4629C30.6243 33.5794 31.3706 34.4111 32.1909 34.958C33.0112 35.5049 33.8771 35.7783 34.7886 35.7783C36.3381 35.7783 37.5799 35.146 38.5142 33.8813C39.4598 32.6167 39.9326 30.9362 39.9326 28.8398V28.5493Z" fill="url(#paint1_linear)"/>
<defs>
<linearGradient id="paint0_linear" x1="27" y1="0" x2="27" y2="54" gradientUnits="userSpaceOnUse">
<stop stop-color="#9F78FE"/>
<stop offset="0.474904" stop-color="#BF71FE"/>
<stop offset="1" stop-color="#EE67FE"/>
</linearGradient>
<linearGradient id="paint1_linear" x1="19" y1="6" x2="19" y2="47" gradientUnits="userSpaceOnUse">
<stop stop-color="#A277FE"/>
<stop offset="1" stop-color="#EE67FE"/>
</linearGradient>
</defs>
</svg>
