<svg width="54" height="54" viewBox="0 0 54 54" fill="none" xmlns="http://www.w3.org/2000/svg">
<g clip-path="url(#clip0)">
<rect x="2" y="2" width="50" height="50" rx="3" stroke="url(#paint0_linear)" stroke-width="4"/>
<rect x="6.5" y="36.5" width="12" height="12" rx="1.5" stroke="url(#paint1_linear)"/>
<rect x="6.5" y="6.5" width="12" height="12" rx="1.5" stroke="url(#paint2_linear)"/>
<rect x="34.5" y="6.5" width="12" height="12" rx="1.5" stroke="url(#paint3_linear)"/>
<path d="M29.5059 28.0098C29.5059 28.834 29.375 29.5449 29.1133 30.1426C28.8516 30.7363 28.4844 31.2012 28.0117 31.5371L29.5352 32.7324L28.7676 33.4414L26.9688 32.0117C26.6875 32.082 26.3906 32.1172 26.0781 32.1172C25.4062 32.1172 24.8105 31.9531 24.291 31.625C23.7715 31.293 23.3672 30.8223 23.0781 30.2129C22.793 29.5996 22.6465 28.8906 22.6387 28.0859V27.4707C22.6387 26.6504 22.7812 25.9258 23.0664 25.2969C23.3516 24.668 23.7539 24.1875 24.2734 23.8555C24.7969 23.5195 25.3945 23.3516 26.0664 23.3516C26.7539 23.3516 27.3574 23.5176 27.877 23.8496C28.4004 24.1816 28.8027 24.6602 29.084 25.2852C29.3652 25.9062 29.5059 26.6328 29.5059 27.4648V28.0098ZM28.3809 27.459C28.3809 26.4551 28.1797 25.6816 27.7773 25.1387C27.3789 24.5918 26.8086 24.3184 26.0664 24.3184C25.3594 24.3184 24.8008 24.5898 24.3906 25.1328C23.9844 25.6719 23.7754 26.4219 23.7637 27.3828V28.0098C23.7637 28.9863 23.9668 29.7559 24.373 30.3184C24.7832 30.8809 25.3516 31.1621 26.0781 31.1621C26.8047 31.1621 27.3672 30.8984 27.7656 30.3711C28.1641 29.8398 28.3691 29.0801 28.3809 28.0918V27.459ZM34.1348 26.6328C33.9707 26.6055 33.793 26.5918 33.6016 26.5918C32.8906 26.5918 32.4082 26.8945 32.1543 27.5V32H31.0703V25.6602H32.125L32.1426 26.3926C32.498 25.8262 33.002 25.543 33.6543 25.543C33.8652 25.543 34.0254 25.5703 34.1348 25.625V26.6328ZM25.5039 42.1973C24.5391 41.9199 23.8359 41.5801 23.3945 41.1777C22.957 40.7715 22.7383 40.2715 22.7383 39.6777C22.7383 39.0059 23.0059 38.4512 23.541 38.0137C24.0801 37.5723 24.7793 37.3516 25.6387 37.3516C26.2246 37.3516 26.7461 37.4648 27.2031 37.6914C27.6641 37.918 28.0195 38.2305 28.2695 38.6289C28.5234 39.0273 28.6504 39.4629 28.6504 39.9355H27.5195C27.5195 39.4199 27.3555 39.0156 27.0273 38.7227C26.6992 38.4258 26.2363 38.2773 25.6387 38.2773C25.084 38.2773 24.6504 38.4004 24.3379 38.6465C24.0293 38.8887 23.875 39.2266 23.875 39.6602C23.875 40.0078 24.0215 40.3027 24.3145 40.5449C24.6113 40.7832 25.1133 41.002 25.8203 41.2012C26.5312 41.4004 27.0859 41.6211 27.4844 41.8633C27.8867 42.1016 28.1836 42.3809 28.375 42.7012C28.5703 43.0215 28.668 43.3984 28.668 43.832C28.668 44.5234 28.3984 45.0781 27.8594 45.4961C27.3203 45.9102 26.5996 46.1172 25.6973 46.1172C25.1113 46.1172 24.5645 46.0059 24.0566 45.7832C23.5488 45.5566 23.1562 45.248 22.8789 44.8574C22.6055 44.4668 22.4688 44.0234 22.4688 43.5273H23.5996C23.5996 44.043 23.7891 44.4512 24.168 44.752C24.5508 45.0488 25.0605 45.1973 25.6973 45.1973C26.291 45.1973 26.7461 45.0762 27.0625 44.834C27.3789 44.5918 27.5371 44.2617 27.5371 43.8438C27.5371 43.4258 27.3906 43.1035 27.0977 42.877C26.8047 42.6465 26.2734 42.4199 25.5039 42.1973ZM31.123 46H30.0391V39.6602H31.123V46ZM29.9512 37.9785C29.9512 37.8027 30.0039 37.6543 30.1094 37.5332C30.2188 37.4121 30.3789 37.3516 30.5898 37.3516C30.8008 37.3516 30.9609 37.4121 31.0703 37.5332C31.1797 37.6543 31.2344 37.8027 31.2344 37.9785C31.2344 38.1543 31.1797 38.3008 31.0703 38.418C30.9609 38.5352 30.8008 38.5938 30.5898 38.5938C30.3789 38.5938 30.2188 38.5352 30.1094 38.418C30.0039 38.3008 29.9512 38.1543 29.9512 37.9785ZM34.041 46H32.957V37H34.041V46ZM37.873 44.5293L39.4434 39.6602H40.5508L38.2773 46H37.4512L35.1543 39.6602H36.2617L37.873 44.5293ZM45.4141 46C45.3516 45.875 45.3008 45.6523 45.2617 45.332C44.7578 45.8555 44.1562 46.1172 43.457 46.1172C42.832 46.1172 42.3184 45.9414 41.916 45.5898C41.5176 45.2344 41.3184 44.7852 41.3184 44.2422C41.3184 43.582 41.5684 43.0703 42.0684 42.707C42.5723 42.3398 43.2793 42.1562 44.1895 42.1562H45.2441V41.6582C45.2441 41.2793 45.1309 40.9785 44.9043 40.7559C44.6777 40.5293 44.3438 40.416 43.9023 40.416C43.5156 40.416 43.1914 40.5137 42.9297 40.709C42.668 40.9043 42.5371 41.1406 42.5371 41.418H41.4473C41.4473 41.1016 41.5586 40.7969 41.7812 40.5039C42.0078 40.207 42.3125 39.9727 42.6953 39.8008C43.082 39.6289 43.5059 39.543 43.9668 39.543C44.6973 39.543 45.2695 39.7266 45.6836 40.0938C46.0977 40.457 46.3125 40.959 46.3281 41.5996V44.5176C46.3281 45.0996 46.4023 45.5625 46.5508 45.9062V46H45.4141ZM43.6152 45.1738C43.9551 45.1738 44.2773 45.0859 44.582 44.9102C44.8867 44.7344 45.1074 44.5059 45.2441 44.2246V42.9238H44.3945C43.0664 42.9238 42.4023 43.3125 42.4023 44.0898C42.4023 44.4297 42.5156 44.6953 42.7422 44.8867C42.9688 45.0781 43.2598 45.1738 43.6152 45.1738Z" fill="url(#paint4_linear)"/>
</g>
<defs>
<linearGradient id="paint0_linear" x1="27" y1="0" x2="27" y2="54" gradientUnits="userSpaceOnUse">
<stop stop-color="#9F78FE"/>
<stop offset="0.474904" stop-color="#BF71FE"/>
<stop offset="1" stop-color="#EE67FE"/>
</linearGradient>
<linearGradient id="paint1_linear" x1="12.5" y1="36" x2="12.5" y2="49" gradientUnits="userSpaceOnUse">
<stop stop-color="#9F78FE"/>
<stop offset="0.474904" stop-color="#BF71FE"/>
<stop offset="1" stop-color="#EE67FE"/>
</linearGradient>
<linearGradient id="paint2_linear" x1="12.5" y1="6" x2="12.5" y2="19" gradientUnits="userSpaceOnUse">
<stop stop-color="#9F78FE"/>
<stop offset="0.474904" stop-color="#BF71FE"/>
<stop offset="1" stop-color="#EE67FE"/>
</linearGradient>
<linearGradient id="paint3_linear" x1="40.5" y1="6" x2="40.5" y2="19" gradientUnits="userSpaceOnUse">
<stop stop-color="#9F78FE"/>
<stop offset="0.474904" stop-color="#BF71FE"/>
<stop offset="1" stop-color="#EE67FE"/>
</linearGradient>
<linearGradient id="paint4_linear" x1="39.5" y1="21" x2="39.5" y2="58" gradientUnits="userSpaceOnUse">
<stop stop-color="#A277FE"/>
<stop offset="1" stop-color="#EE67FE"/>
</linearGradient>
<clipPath id="clip0">
<rect width="54" height="54" fill="white"/>
</clipPath>
</defs>
</svg>
