<svg width="100" height="100" viewBox="0 0 100 100" fill="none" xmlns="http://www.w3.org/2000/svg">
<path d="M69.865 50.7816L65.9173 51.4266L66.4024 54.3949L69.3886 54.7531L69.865 50.7816ZM68.4025 75L68.3994 79H68.4025V75ZM68.3831 75L68.3862 71H68.3831V75ZM30.94 44.3221L29.8661 48.1753L32.9492 49.0345L34.4638 46.215L30.94 44.3221ZM73.8126 50.1365C71.8846 38.3373 61.6503 29.3333 49.3053 29.3333V37.3333C57.6669 37.3333 64.6113 43.4338 65.9173 51.4266L73.8126 50.1365ZM84.5553 62.8472C84.5553 54.5813 78.3499 47.7705 70.3413 46.81L69.3886 54.7531C73.4246 55.2372 76.5553 58.6795 76.5553 62.8472H84.5553ZM68.4025 79C77.3235 79 84.5553 71.7682 84.5553 62.8472H76.5553C76.5553 67.3499 72.9052 71 68.4025 71V79ZM68.3799 79L68.3994 79L68.4057 71L68.3862 71L68.3799 79ZM49.3053 79H68.3831V71H49.3053V79ZM26.7358 79H49.3053V71H26.7358V79ZM7.11084 59.375C7.11084 70.2136 15.8973 79 26.7358 79V71C20.3155 71 15.1108 65.7953 15.1108 59.375H7.11084ZM26.7358 39.75C15.8973 39.75 7.11084 48.5364 7.11084 59.375H15.1108C15.1108 52.9547 20.3155 47.75 26.7358 47.75V39.75ZM32.0139 40.469C30.33 39.9996 28.5588 39.75 26.7358 39.75V47.75C27.8259 47.75 28.8748 47.899 29.8661 48.1753L32.0139 40.469ZM49.3053 29.3333C39.8292 29.3333 31.5991 34.6423 27.4162 42.4292L34.4638 46.215C37.3084 40.9195 42.8911 37.3333 49.3053 37.3333V29.3333Z" fill="url(#paint0_linear)"/>
<path d="M75.6336 53.4651C78.7187 52.5388 81.4274 50.7427 83.4751 48.3617C85.9838 45.4445 87.5001 41.6493 87.5001 37.5C87.5001 28.2952 80.0382 20.8333 70.8335 20.8333C66.6527 20.8333 62.8315 22.3727 59.9057 24.9155C57.3631 27.1252 55.4967 30.0927 54.6582 33.4664" stroke="url(#paint1_linear)" stroke-width="5"/>
<defs>
<linearGradient id="paint0_linear" x1="11.618" y1="47.3236" x2="80.0391" y2="48.4323" gradientUnits="userSpaceOnUse">
<stop stop-color="#6937C7"/>
<stop offset="1" stop-color="#EC68FE"/>
</linearGradient>
<linearGradient id="paint1_linear" x1="54.898" y1="31.79" x2="87.2614" y2="32.1066" gradientUnits="userSpaceOnUse">
<stop stop-color="#6937C7"/>
<stop offset="1" stop-color="#EC68FE"/>
</linearGradient>
</defs>
</svg>
